<svg viewBox="0 0 200 200" xmlns="http://www.w3.org/2000/svg" role="img" aria-hidden="true">
  <!--
    Generated by tools/catalogue from route:BEG-SZY. Do not hand-edit: `make
    catalogue` rewrites every file in this directory. The colours are the
    light-theme tokens frontend/src/styles.css declares, as literal hex.
  -->
  <title>Belgrade Nikola Tesla → Szczytno-Szymany</title>
  <rect x="6" y="6" width="188" height="188" rx="20" fill="#e8dfcc" stroke="#10243a" stroke-width="3"/>
  <rect x="72" y="40" width="24" height="24" rx="6" fill="#546375"/>
  <rect x="104" y="40" width="24" height="24" rx="6" fill="#546375"/>
  <rect x="72" y="72" width="24" height="24" rx="6" fill="#10243a"/>
  <rect x="104" y="72" width="24" height="24" rx="6" fill="#10243a"/>
  <path d="M52,103 L65,116 L52,129 L39,116 Z" fill="#546375"/>
  <path d="M84,103 L97,116 L84,129 L71,116 Z" fill="#10243a"/>
  <path d="M116,103 L129,116 L116,129 L103,116 Z" fill="#10243a"/>
  <path d="M148,103 L161,116 L148,129 L135,116 Z" fill="#546375"/>
  <path d="M52,135 L65,148 L52,161 L39,148 Z" fill="#10243a"/>
  <path d="M84,135 L97,148 L84,161 L71,148 Z" fill="#10243a"/>
  <path d="M116,135 L129,148 L116,161 L103,148 Z" fill="#10243a"/>
  <path d="M148,135 L161,148 L148,161 L135,148 Z" fill="#10243a"/>
</svg>
