<svg viewBox="0 0 200 200" xmlns="http://www.w3.org/2000/svg" role="img" aria-hidden="true">
  <!--
    Generated by tools/catalogue from route:BEG-PSA. Do not hand-edit: `make
    catalogue` rewrites every file in this directory. The colours are the
    light-theme tokens frontend/src/styles.css declares, as literal hex.
  -->
  <title>Belgrade Nikola Tesla → Pisa 'Galileo Galilei'</title>
  <rect x="6" y="6" width="188" height="188" rx="20" fill="#e8dfcc" stroke="#10243a" stroke-width="3"/>
  <rect x="40" y="40" width="24" height="24" rx="6" fill="#546375"/>
  <rect x="72" y="40" width="24" height="24" rx="6" fill="#10243a"/>
  <rect x="104" y="40" width="24" height="24" rx="6" fill="#10243a"/>
  <rect x="136" y="40" width="24" height="24" rx="6" fill="#546375"/>
  <path d="M52,71 L65,84 L52,97 L39,84 Z" fill="#546375"/>
  <path d="M84,71 L97,84 L84,97 L71,84 Z" fill="#546375"/>
  <path d="M116,71 L129,84 L116,97 L103,84 Z" fill="#546375"/>
  <path d="M148,71 L161,84 L148,97 L135,84 Z" fill="#546375"/>
  <rect x="40" y="104" width="24" height="24" rx="6" fill="#10243a"/>
  <rect x="72" y="104" width="24" height="24" rx="6" fill="#546375"/>
  <rect x="104" y="104" width="24" height="24" rx="6" fill="#546375"/>
  <rect x="136" y="104" width="24" height="24" rx="6" fill="#10243a"/>
  <path d="M52,135 L65,148 L52,161 L39,148 Z" fill="#546375"/>
  <path d="M148,135 L161,148 L148,161 L135,148 Z" fill="#546375"/>
</svg>
