<svg viewBox="0 0 200 200" xmlns="http://www.w3.org/2000/svg" role="img" aria-hidden="true">
  <!--
    Generated by tools/catalogue from wd:Q104531763. Do not hand-edit: `make
    catalogue` rewrites every file in this directory. The colours are the
    light-theme tokens frontend/src/styles.css declares, as literal hex.
  -->
  <title>Xiaomi Mi 11</title>
  <rect x="6" y="6" width="188" height="188" rx="20" fill="#e8dfcc" stroke="#10243a" stroke-width="3"/>
  <rect x="40" y="40" width="24" height="24" rx="6" fill="#10243a"/>
  <rect x="72" y="40" width="24" height="24" rx="6" fill="#10243a"/>
  <rect x="104" y="40" width="24" height="24" rx="6" fill="#10243a"/>
  <rect x="136" y="40" width="24" height="24" rx="6" fill="#10243a"/>
  <circle cx="52" cy="84" r="12" fill="#10243a"/>
  <path d="M84,71 L97,84 L84,97 L71,84 Z" fill="#10243a"/>
  <path d="M116,71 L129,84 L116,97 L103,84 Z" fill="#10243a"/>
  <circle cx="148" cy="84" r="12" fill="#10243a"/>
  <rect x="72" y="104" width="24" height="24" rx="6" fill="#1f5fbf"/>
  <rect x="104" y="104" width="24" height="24" rx="6" fill="#1f5fbf"/>
  <path d="M84,135 L97,148 L84,161 L71,148 Z" fill="#10243a"/>
  <path d="M116,135 L129,148 L116,161 L103,148 Z" fill="#10243a"/>
</svg>
