<svg viewBox="0 0 200 200" xmlns="http://www.w3.org/2000/svg" role="img" aria-hidden="true">
  <!--
    Generated by tools/catalogue from wd:Q102348262. Do not hand-edit: `make
    catalogue` rewrites every file in this directory. The colours are the
    light-theme tokens frontend/src/styles.css declares, as literal hex.
  -->
  <title>Fujifilm X-S10</title>
  <rect x="6" y="6" width="188" height="188" rx="20" fill="#e8dfcc" stroke="#10243a" stroke-width="3"/>
  <rect x="72" y="40" width="24" height="24" rx="6" fill="#10243a"/>
  <rect x="104" y="40" width="24" height="24" rx="6" fill="#10243a"/>
  <circle cx="52" cy="84" r="12" fill="#10243a"/>
  <rect x="72" y="72" width="24" height="24" rx="6" fill="#10243a"/>
  <rect x="104" y="72" width="24" height="24" rx="6" fill="#10243a"/>
  <circle cx="148" cy="84" r="12" fill="#10243a"/>
  <path d="M52,103 L65,116 L52,129 L39,116 Z" fill="#a14917"/>
  <path d="M148,103 L161,116 L148,129 L135,116 Z" fill="#a14917"/>
  <rect x="40" y="136" width="24" height="24" rx="6" fill="#a14917"/>
  <circle cx="84" cy="148" r="12" fill="#10243a"/>
  <circle cx="116" cy="148" r="12" fill="#10243a"/>
  <rect x="136" y="136" width="24" height="24" rx="6" fill="#a14917"/>
</svg>
